<mxfile host="app.diagrams.net" agent="Mozilla/5.0 (Windows NT 10.0; Win64; x64) AppleWebKit/537.36 (KHTML, like Gecko) Chrome/129.0.0.0 Safari/537.36" version="24.7.17">
  <diagram name="Página-1" id="8tVACQGiT_Ck90gxElXu">
    <mxGraphModel grid="1" page="1" gridSize="10" guides="1" tooltips="1" connect="1" arrows="1" fold="1" pageScale="1" pageWidth="827" pageHeight="1169" math="0" shadow="0">
      <root>
        <mxCell id="0" />
        <mxCell id="1" parent="0" />
        <mxCell id="J7_FojSra-1urUptKOzf-1" value="" style="whiteSpace=wrap;html=1;" vertex="1" parent="1">
          <mxGeometry x="230" y="-90" width="870" height="610" as="geometry" />
        </mxCell>
        <mxCell id="J7_FojSra-1urUptKOzf-2" value="" style="endArrow=none;html=1;rounded=0;" edge="1" parent="1">
          <mxGeometry width="50" height="50" relative="1" as="geometry">
            <mxPoint x="360" y="40" as="sourcePoint" />
            <mxPoint x="1080" y="40" as="targetPoint" />
          </mxGeometry>
        </mxCell>
        <mxCell id="J7_FojSra-1urUptKOzf-3" value="" style="endArrow=none;html=1;rounded=0;" edge="1" parent="1">
          <mxGeometry width="50" height="50" relative="1" as="geometry">
            <mxPoint x="500" y="-20" as="sourcePoint" />
            <mxPoint x="500" y="500" as="targetPoint" />
          </mxGeometry>
        </mxCell>
        <mxCell id="J7_FojSra-1urUptKOzf-4" value="" style="endArrow=none;html=1;rounded=0;" edge="1" parent="1">
          <mxGeometry width="50" height="50" relative="1" as="geometry">
            <mxPoint x="680" y="-20" as="sourcePoint" />
            <mxPoint x="680" y="500" as="targetPoint" />
          </mxGeometry>
        </mxCell>
        <mxCell id="J7_FojSra-1urUptKOzf-5" value="" style="endArrow=none;html=1;rounded=0;" edge="1" parent="1">
          <mxGeometry width="50" height="50" relative="1" as="geometry">
            <mxPoint x="870" y="-20" as="sourcePoint" />
            <mxPoint x="870" y="500" as="targetPoint" />
          </mxGeometry>
        </mxCell>
        <mxCell id="J7_FojSra-1urUptKOzf-6" value="" style="endArrow=none;html=1;rounded=0;" edge="1" parent="1">
          <mxGeometry width="50" height="50" relative="1" as="geometry">
            <mxPoint x="1070" y="-20" as="sourcePoint" />
            <mxPoint x="1070" y="500" as="targetPoint" />
          </mxGeometry>
        </mxCell>
        <mxCell id="J7_FojSra-1urUptKOzf-7" value="Actor" style="shape=umlActor;verticalLabelPosition=bottom;verticalAlign=top;html=1;outlineConnect=0;" vertex="1" parent="1">
          <mxGeometry x="410" y="-70" width="50" height="90" as="geometry" />
        </mxCell>
        <mxCell id="J7_FojSra-1urUptKOzf-8" value="Interfaz" style="text;html=1;align=center;verticalAlign=middle;resizable=0;points=[];autosize=1;strokeColor=none;fillColor=none;" vertex="1" parent="1">
          <mxGeometry x="560" y="-10" width="60" height="30" as="geometry" />
        </mxCell>
        <mxCell id="J7_FojSra-1urUptKOzf-9" value="Sistema" style="text;html=1;align=center;verticalAlign=middle;resizable=0;points=[];autosize=1;strokeColor=none;fillColor=none;" vertex="1" parent="1">
          <mxGeometry x="740" y="-10" width="70" height="30" as="geometry" />
        </mxCell>
        <mxCell id="J7_FojSra-1urUptKOzf-10" value="Base de datos" style="text;html=1;align=center;verticalAlign=middle;resizable=0;points=[];autosize=1;strokeColor=none;fillColor=none;" vertex="1" parent="1">
          <mxGeometry x="930" y="-10" width="100" height="30" as="geometry" />
        </mxCell>
        <mxCell id="J7_FojSra-1urUptKOzf-11" value="" style="points=[[0.145,0.145,0],[0.5,0,0],[0.855,0.145,0],[1,0.5,0],[0.855,0.855,0],[0.5,1,0],[0.145,0.855,0],[0,0.5,0]];shape=mxgraph.bpmn.event;html=1;verticalLabelPosition=bottom;labelBackgroundColor=#ffffff;verticalAlign=top;align=center;perimeter=ellipsePerimeter;outlineConnect=0;aspect=fixed;outline=standard;symbol=general;shadow=1;strokeColor=default;fontFamily=Helvetica;fontSize=12;fontColor=default;fillColor=#000000;" vertex="1" parent="1">
          <mxGeometry x="250" y="430" width="50" height="50" as="geometry" />
        </mxCell>
        <mxCell id="J7_FojSra-1urUptKOzf-12" value="" style="edgeStyle=orthogonalEdgeStyle;rounded=0;orthogonalLoop=1;jettySize=auto;html=1;" edge="1" parent="1" source="J7_FojSra-1urUptKOzf-13" target="J7_FojSra-1urUptKOzf-15">
          <mxGeometry relative="1" as="geometry" />
        </mxCell>
        <mxCell id="J7_FojSra-1urUptKOzf-13" value="Ingresa a su perfil&amp;nbsp;" style="rounded=0;whiteSpace=wrap;html=1;" vertex="1" parent="1">
          <mxGeometry x="365" y="95" width="120" height="60" as="geometry" />
        </mxCell>
        <mxCell id="J7_FojSra-1urUptKOzf-14" style="rounded=0;orthogonalLoop=1;jettySize=auto;html=1;exitX=0.5;exitY=1;exitDx=0;exitDy=0;entryX=1;entryY=0.75;entryDx=0;entryDy=0;" edge="1" parent="1" source="J7_FojSra-1urUptKOzf-15" target="J7_FojSra-1urUptKOzf-38">
          <mxGeometry relative="1" as="geometry" />
        </mxCell>
        <mxCell id="J7_FojSra-1urUptKOzf-15" value="Se despliegan distintas opciones" style="rounded=0;whiteSpace=wrap;html=1;" vertex="1" parent="1">
          <mxGeometry x="530" y="95" width="120" height="60" as="geometry" />
        </mxCell>
        <mxCell id="J7_FojSra-1urUptKOzf-16" style="edgeStyle=orthogonalEdgeStyle;rounded=0;orthogonalLoop=1;jettySize=auto;html=1;exitX=1;exitY=0.5;exitDx=0;exitDy=0;exitPerimeter=0;entryX=0;entryY=0.5;entryDx=0;entryDy=0;" edge="1" parent="1" source="J7_FojSra-1urUptKOzf-17" target="J7_FojSra-1urUptKOzf-13">
          <mxGeometry relative="1" as="geometry" />
        </mxCell>
        <mxCell id="J7_FojSra-1urUptKOzf-17" value="" style="points=[[0.145,0.145,0],[0.5,0,0],[0.855,0.145,0],[1,0.5,0],[0.855,0.855,0],[0.5,1,0],[0.145,0.855,0],[0,0.5,0]];shape=mxgraph.bpmn.event;html=1;verticalLabelPosition=bottom;labelBackgroundColor=#ffffff;verticalAlign=top;align=center;perimeter=ellipsePerimeter;outlineConnect=0;aspect=fixed;outline=standard;symbol=general;shadow=1;strokeColor=default;fontFamily=Helvetica;fontSize=12;fontColor=default;fillColor=#000000;" vertex="1" parent="1">
          <mxGeometry x="240" y="100" width="50" height="50" as="geometry" />
        </mxCell>
        <mxCell id="J7_FojSra-1urUptKOzf-20" style="rounded=0;orthogonalLoop=1;jettySize=auto;html=1;entryX=0;entryY=0.5;entryDx=0;entryDy=0;" edge="1" parent="1" source="J7_FojSra-1urUptKOzf-21" target="J7_FojSra-1urUptKOzf-25">
          <mxGeometry relative="1" as="geometry" />
        </mxCell>
        <mxCell id="J7_FojSra-1urUptKOzf-21" value="Envía consulta de datos que coincidan con lo ingresado" style="rounded=0;whiteSpace=wrap;html=1;" vertex="1" parent="1">
          <mxGeometry x="715" y="200" width="120" height="60" as="geometry" />
        </mxCell>
        <mxCell id="J7_FojSra-1urUptKOzf-22" value="" style="edgeStyle=orthogonalEdgeStyle;rounded=0;orthogonalLoop=1;jettySize=auto;html=1;" edge="1" parent="1" source="J7_FojSra-1urUptKOzf-23" target="J7_FojSra-1urUptKOzf-21">
          <mxGeometry relative="1" as="geometry" />
        </mxCell>
        <mxCell id="J7_FojSra-1urUptKOzf-23" value="Se valida que los campos sean llenados correctamente" style="rounded=0;whiteSpace=wrap;html=1;" vertex="1" parent="1">
          <mxGeometry x="715" y="95" width="120" height="60" as="geometry" />
        </mxCell>
        <mxCell id="J7_FojSra-1urUptKOzf-24" style="rounded=0;orthogonalLoop=1;jettySize=auto;html=1;exitX=0;exitY=1;exitDx=0;exitDy=0;entryX=1;entryY=0.5;entryDx=0;entryDy=0;" edge="1" parent="1" source="J7_FojSra-1urUptKOzf-25" target="J7_FojSra-1urUptKOzf-32">
          <mxGeometry relative="1" as="geometry" />
        </mxCell>
        <mxCell id="J7_FojSra-1urUptKOzf-25" value="Se verifica que lo ingresado sea correcto&amp;nbsp;" style="rounded=0;whiteSpace=wrap;html=1;" vertex="1" parent="1">
          <mxGeometry x="920" y="200" width="120" height="60" as="geometry" />
        </mxCell>
        <mxCell id="J7_FojSra-1urUptKOzf-26" style="edgeStyle=orthogonalEdgeStyle;rounded=0;orthogonalLoop=1;jettySize=auto;html=1;exitX=0;exitY=0.5;exitDx=0;exitDy=0;entryX=1;entryY=0.5;entryDx=0;entryDy=0;" edge="1" parent="1" source="J7_FojSra-1urUptKOzf-27" target="J7_FojSra-1urUptKOzf-36">
          <mxGeometry relative="1" as="geometry" />
        </mxCell>
        <mxCell id="J7_FojSra-1urUptKOzf-27" value="Se accede a su perfil de usuario" style="rounded=0;whiteSpace=wrap;html=1;" vertex="1" parent="1">
          <mxGeometry x="717.5" y="425" width="120" height="60" as="geometry" />
        </mxCell>
        <mxCell id="J7_FojSra-1urUptKOzf-28" style="edgeStyle=orthogonalEdgeStyle;rounded=0;orthogonalLoop=1;jettySize=auto;html=1;exitX=0;exitY=0.5;exitDx=0;exitDy=0;entryX=1;entryY=0.5;entryDx=0;entryDy=0;" edge="1" parent="1" source="J7_FojSra-1urUptKOzf-32" target="J7_FojSra-1urUptKOzf-34">
          <mxGeometry relative="1" as="geometry" />
        </mxCell>
        <mxCell id="J7_FojSra-1urUptKOzf-29" value="NO" style="edgeLabel;html=1;align=center;verticalAlign=middle;resizable=0;points=[];" connectable="0" vertex="1" parent="J7_FojSra-1urUptKOzf-28">
          <mxGeometry x="-0.1529" y="1" relative="1" as="geometry">
            <mxPoint as="offset" />
          </mxGeometry>
        </mxCell>
        <mxCell id="J7_FojSra-1urUptKOzf-30" style="edgeStyle=orthogonalEdgeStyle;rounded=0;orthogonalLoop=1;jettySize=auto;html=1;exitX=0.5;exitY=1;exitDx=0;exitDy=0;entryX=0.5;entryY=0;entryDx=0;entryDy=0;" edge="1" parent="1" source="J7_FojSra-1urUptKOzf-32" target="J7_FojSra-1urUptKOzf-27">
          <mxGeometry relative="1" as="geometry" />
        </mxCell>
        <mxCell id="J7_FojSra-1urUptKOzf-31" value="SI" style="edgeLabel;html=1;align=center;verticalAlign=middle;resizable=0;points=[];" connectable="0" vertex="1" parent="J7_FojSra-1urUptKOzf-30">
          <mxGeometry x="-0.2" relative="1" as="geometry">
            <mxPoint as="offset" />
          </mxGeometry>
        </mxCell>
        <mxCell id="J7_FojSra-1urUptKOzf-32" value="¿Datos recibidos son correctos?" style="rhombus;whiteSpace=wrap;html=1;" vertex="1" parent="1">
          <mxGeometry x="735" y="290" width="85" height="90" as="geometry" />
        </mxCell>
        <mxCell id="J7_FojSra-1urUptKOzf-34" value="Mensaje de &quot;Usuario y contraseñas incorrecta&quot;" style="rounded=0;whiteSpace=wrap;html=1;" vertex="1" parent="1">
          <mxGeometry x="530" y="240" width="120" height="60" as="geometry" />
        </mxCell>
        <mxCell id="J7_FojSra-1urUptKOzf-35" style="edgeStyle=orthogonalEdgeStyle;rounded=0;orthogonalLoop=1;jettySize=auto;html=1;exitX=0;exitY=0.5;exitDx=0;exitDy=0;" edge="1" parent="1" source="J7_FojSra-1urUptKOzf-36" target="J7_FojSra-1urUptKOzf-11">
          <mxGeometry relative="1" as="geometry" />
        </mxCell>
        <mxCell id="J7_FojSra-1urUptKOzf-36" value="Se muestra su perfil de inicio según sus credenciales" style="rounded=0;whiteSpace=wrap;html=1;" vertex="1" parent="1">
          <mxGeometry x="530" y="425" width="120" height="60" as="geometry" />
        </mxCell>
        <mxCell id="J7_FojSra-1urUptKOzf-37" style="edgeStyle=orthogonalEdgeStyle;rounded=0;orthogonalLoop=1;jettySize=auto;html=1;exitX=0.5;exitY=1;exitDx=0;exitDy=0;" edge="1" parent="1" source="J7_FojSra-1urUptKOzf-38">
          <mxGeometry relative="1" as="geometry">
            <mxPoint x="425.0000000000002" y="290" as="targetPoint" />
          </mxGeometry>
        </mxCell>
        <mxCell id="J7_FojSra-1urUptKOzf-38" value="Selecciona la opción" style="rounded=0;whiteSpace=wrap;html=1;" vertex="1" parent="1">
          <mxGeometry x="365" y="190" width="120" height="60" as="geometry" />
        </mxCell>
      </root>
    </mxGraphModel>
  </diagram>
</mxfile>
